<svg viewBox="0 0 800 600" height="600" width="800" xmlns="http://www.w3.org/2000/svg" version="1.1"><g transform-origin="center" transform="scale(1, 1) rotate(0)"><rect x="0" y="0" width="800" height="600" fill="#010307ff"></rect><linearGradient id="linear-gradient-r2"><stop offset="0%" stop-color="#f10a29ff" stop-opacity="100%"></stop><stop offset="100%" stop-color="#f11428ff" stop-opacity="100%"></stop></linearGradient><filter id="strokeStyle" x="-20%" y="-20%" width="140%" height="140%" filterUnits="objectBoundingBox"><feTurbulence type="fractalNoise" baseFrequency="0.03" numOctaves="3" seed="1" result="f1"></feTurbulence><feDisplacementMap xChannelSelector="R" yChannelSelector="G" scale="5" in="SourceGraphic" in2="f1" result="f4"></feDisplacementMap><feTurbulence type="fractalNoise" baseFrequency="0.03" numOctaves="3" seed="10" result="f2"></feTurbulence><feDisplacementMap xChannelSelector="R" yChannelSelector="G" scale="5" in="SourceGraphic" in2="f2" result="f5"></feDisplacementMap><feTurbulence type="fractalNoise" baseFrequency="1.2" numOctaves="2" seed="100" result="f3"></feTurbulence><feDisplacementMap xChannelSelector="R" yChannelSelector="G" scale="3" in="SourceGraphic" in2="f3" result="f6"></feDisplacementMap><feBlend mode="multiply" in2="f4" in="f5" result="out1"></feBlend><feBlend mode="multiply" in="out1" in2="f6" result="out2"></feBlend></filter><g filter="url(#strokeStyle)"><path d="M 1070.0698906673235 450.0698906673235 C999.7058391909691 685.0698906673235 835.0698906673235 958.2402268511031 600.0698906673235 920.0698906673235  C365.0698906673235 881.899554483544 218.2718758979322 685.0698906673235 130.06989066732348 450.0698906673235  C41.86790543671475 215.06989066732348 365.0698906673235 149.73841581688302 600.0698906673235 -19.930109332676512  C835.0698906673235 -189.59863448223606 1140.433942143678 215.06989066732348 1070.0698906673235 450.0698906673235" fill="none" stroke-linecap="round" stroke="url(#linear-gradient-r2)" stroke-width="20" style="transform-origin: center center; transform: scale(0.7) translate(266px, -135px); transition: 0.4s cubic-bezier(0.16, 1, 0.3, 1);"></path><path d="M 1091.7365573339903 500.06989066732353 C1035.9743658395728 712.5698906673235 879.2365573339903 955.3191664129288 666.7365573339903 925.0698906673235  C454.2365573339902 894.8206149217183 311.6349768738283 712.5698906673235 241.73655733399022 500.06989066732353  C171.83813779415217 287.56989066732353 454.2365573339902 209.52901562468165 666.7365573339903 75.06989066732355  C879.2365573339903 -59.389234290034565 1147.4987488284078 287.56989066732353 1091.7365573339903 500.06989066732353" fill="none" stroke-linecap="round" stroke="url(#linear-gradient-r2)" stroke-width="10" style="transform-origin: center center; transform: scale(0.7) translate(266px, -135px); transition: 0.4s cubic-bezier(0.16, 1, 0.3, 1);"></path><path d="M 1080.0698906673235 525.0698906673235 C1032.0389532604331 715.0698906673235 890.0698906673235 931.125198591984 700.0698906673235 905.0698906673235  C510.0698906673235 879.014582742663 380.2771121516984 715.0698906673235 320.0698906673235 525.0698906673235  C259.86266918294854 335.0698906673235 510.0698906673235 260.886676943714 700.0698906673235 145.06989066732348  C890.0698906673235 29.253104390932958 1128.100828074214 335.0698906673235 1080.0698906673235 525.0698906673235" fill="none" stroke-linecap="round" stroke="url(#linear-gradient-r2)" stroke-width="6.666666666666667" style="transform-origin: center center; transform: scale(0.7) translate(266px, -135px); transition: 0.4s cubic-bezier(0.16, 1, 0.3, 1);"></path><path d="M 1055.0698906673235 540.0698906673235 C1011.9263700329925 707.5698906673235 887.5698906673235 898.4739251453218 720.0698906673235 875.0698906673235  C552.5698906673235 851.6658561893253 439.15069030781166 707.5698906673235 385.0698906673235 540.0698906673235  C330.9890910268353 372.5698906673235 552.5698906673235 309.10167056343147 720.0698906673235 205.06989066732348  C887.5698906673235 101.03811077121549 1098.2134113016546 372.5698906673235 1055.0698906673235 540.0698906673235" fill="none" stroke-linecap="round" stroke="url(#linear-gradient-r2)" stroke-width="5" style="transform-origin: center center; transform: scale(0.7) translate(266px, -135px); transition: 0.4s cubic-bezier(0.16, 1, 0.3, 1);"></path><path d="M 1023.4032240006569 550.0698906673235 C983.6774372422462 695.0698906673235 878.4032240006569 861.6199095181174 733.4032240006569 840.0698906673235  C588.4032240006569 818.5198718165296 493.1998628158211 695.0698906673235 443.40322400065685 550.0698906673235  C393.6065851854926 405.0698906673235 588.4032240006569 355.8605040314567 733.4032240006569 260.0698906673235  C878.4032240006569 164.27927730319027 1063.1290107590676 405.0698906673235 1023.4032240006569 550.0698906673235" fill="none" stroke-linecap="round" stroke="url(#linear-gradient-r2)" stroke-width="4" style="transform-origin: center center; transform: scale(0.7) translate(266px, -135px); transition: 0.4s cubic-bezier(0.16, 1, 0.3, 1);"></path><path d="M 987.9270335244664 557.2127478101808 C950.7522391948547 679.7127478101808 865.4270335244664 822.3789316405843 742.9270335244664 802.2127478101808  C620.4270335244664 782.0465639797773 544.5259798843584 679.7127478101808 497.92703352446637 557.2127478101808  C451.32808716457436 434.7127478101807 620.4270335244664 401.85216444841944 742.9270335244664 312.2127478101807  C865.4270335244664 222.57333117194196 1025.101827854078 434.7127478101807 987.9270335244664 557.2127478101808" fill="none" stroke-linecap="round" stroke="url(#linear-gradient-r2)" stroke-width="3.3333333333333335" style="transform-origin: center center; transform: scale(0.7) translate(266px, -135px); transition: 0.4s cubic-bezier(0.16, 1, 0.3, 1);"></path><path d="M 950.0698906673235 562.5698906673235 C914.8878649291463 662.5698906673235 850.0698906673235 781.6550587592134 750.0698906673235 762.5698906673235  C650.0698906673235 743.4847225754337 594.1708832826279 662.5698906673235 550.0698906673235 562.5698906673235  C505.96889805201914 462.5698906673235 650.0698906673235 447.40415324210323 750.0698906673235 362.5698906673235  C850.0698906673235 277.7356280925437 985.2519164055008 462.5698906673235 950.0698906673235 562.5698906673235" fill="none" stroke-linecap="round" stroke="url(#linear-gradient-r2)" stroke-width="2.857142857142857" style="transform-origin: center center; transform: scale(0.7) translate(266px, -135px); transition: 0.4s cubic-bezier(0.16, 1, 0.3, 1);"></path><path d="M 910.6254462228791 566.7365573339902 C877.0532616953219 644.2365573339902 833.1254462228791 739.9484360270665 755.6254462228791 721.7365573339902  C678.1254462228791 703.5246786409139 642.7084880848722 644.2365573339902 600.6254462228791 566.7365573339902  C558.5424043608859 489.2365573339901 678.1254462228791 492.68901693978256 755.6254462228791 411.7365573339901  C833.1254462228791 330.78409772819765 944.1976307504362 489.2365573339901 910.6254462228791 566.7365573339902" fill="none" stroke-linecap="round" stroke="url(#linear-gradient-r2)" stroke-width="2.5" style="transform-origin: center center; transform: scale(0.7) translate(266px, -135px); transition: 0.4s cubic-bezier(0.16, 1, 0.3, 1);"></path><path d="M 870.0698906673235 570.0698906673235 C837.8321142684464 625.0698906673235 815.0698906673235 697.5578939466141 760.0698906673235 680.0698906673235  C705.0698906673235 662.581887388033 690.4802396756799 625.0698906673235 650.0698906673235 570.0698906673235  C609.6595416589672 515.0698906673235 705.0698906673235 537.8046978726313 760.0698906673235 460.0698906673235  C815.0698906673235 382.3350834620157 902.3076670662007 515.0698906673235 870.0698906673235 570.0698906673235" fill="none" stroke-linecap="round" stroke="url(#linear-gradient-r2)" stroke-width="2.2222222222222223" style="transform-origin: center center; transform: scale(0.7) translate(266px, -135px); transition: 0.4s cubic-bezier(0.16, 1, 0.3, 1);"></path><path d="M 828.7062543036872 572.7971633945962 C797.5973144008568 605.2971633945962 796.2062543036872 654.672807555181 763.7062543036872 637.7971633945962  C731.2062543036872 620.9215192340114 737.701596389289 605.2971633945962 698.7062543036872 572.7971633945962  C659.7109122180854 540.2971633945962 731.2062543036872 582.8100121651538 763.7062543036872 507.7971633945961  C796.2062543036872 432.7843146240385 859.8151942065175 540.2971633945962 828.7062543036872 572.7971633945962" fill="none" stroke-linecap="round" stroke="url(#linear-gradient-r2)" stroke-width="2" style="transform-origin: center center; transform: scale(0.7) translate(266px, -135px); transition: 0.4s cubic-bezier(0.16, 1, 0.3, 1);"></path></g></g></svg>